<svg xmlns="http://www.w3.org/2000/svg" viewBox="0 0 1200 800">
  <rect width="1200" height="800" fill="#FFF5E6"/>
  <g transform="translate(250, 400)">
    <rect x="-15" y="0" width="30" height="180" rx="12" fill="#FF8C00" opacity="0.8"/>
    <rect x="-20" y="-30" width="12" height="50" rx="6" fill="#FF8C00" opacity="0.7" transform="rotate(-20, -14, -30)"/>
    <path d="M0 0 L0 -100" stroke="#2D6A4F" stroke-width="4" stroke-linecap="round"/>
    <circle cx="0" cy="-120" r="15" fill="#2D6A4F" opacity="0.6"/>
  </g>
  <g transform="translate(450, 350)">
    <rect x="-15" y="0" width="30" height="200" rx="12" fill="#FF8C00" opacity="0.9"/>
    <rect x="10" y="-25" width="12" height="45" rx="6" fill="#FF8C00" opacity="0.7" transform="rotate(15, 16, -25)"/>
    <path d="M0 0 L0 -120" stroke="#2D6A4F" stroke-width="4" stroke-linecap="round"/>
    <circle cx="-10" cy="-135" r="12" fill="#2D6A4F" opacity="0.7"/>
    <circle cx="10" cy="-140" r="10" fill="#2D6A4F" opacity="0.5"/>
  </g>
  <g transform="translate(600, 320)">
    <rect x="-18" y="0" width="36" height="220" rx="14" fill="#FF8C00"/>
    <rect x="-25" y="-20" width="12" height="50" rx="6" fill="#FF8C00" opacity="0.8" transform="rotate(-25, -19, -20)"/>
    <rect x="18" y="-15" width="12" height="45" rx="6" fill="#FF8C00" opacity="0.8" transform="rotate(20, 24, -15)"/>
    <path d="M0 0 L0 -140" stroke="#2D6A4F" stroke-width="5" stroke-linecap="round"/>
    <circle cx="0" cy="-160" r="18" fill="#2D6A4F" opacity="0.7"/>
    <circle cx="-15" cy="-150" r="12" fill="#2D6A4F" opacity="0.5"/>
    <circle cx="15" cy="-150" r="12" fill="#2D6A4F" opacity="0.5"/>
  </g>
  <g transform="translate(750, 350)">
    <rect x="-15" y="0" width="30" height="200" rx="12" fill="#FF8C00" opacity="0.9"/>
    <path d="M0 0 L0 -110" stroke="#2D6A4F" stroke-width="4" stroke-linecap="round"/>
    <circle cx="0" cy="-125" r="14" fill="#2D6A4F" opacity="0.6"/>
  </g>
  <g transform="translate(950, 400)">
    <rect x="-15" y="0" width="30" height="180" rx="12" fill="#FF8C00" opacity="0.8"/>
    <path d="M0 0 L0 -90" stroke="#2D6A4F" stroke-width="4" stroke-linecap="round"/>
    <circle cx="0" cy="-105" r="12" fill="#2D6A4F" opacity="0.5"/>
  </g>
  <line x1="100" y1="580" x2="1100" y2="580" stroke="#FF8C00" stroke-width="2" opacity="0.3"/>
</svg>
