<svg xmlns="http://www.w3.org/2000/svg" viewBox="0 0 1200 800">
  <rect width="1200" height="800" fill="#FFF5E6"/>
  <circle cx="600" cy="350" r="150" fill="none" stroke="#FF8C00" stroke-width="5"/>
  <ellipse cx="600" cy="350" rx="150" ry="60" fill="none" stroke="#FF8C00" stroke-width="2" opacity="0.5"/>
  <ellipse cx="600" cy="350" rx="60" ry="150" fill="none" stroke="#FF8C00" stroke-width="2" opacity="0.5"/>
  <line x1="450" y1="350" x2="750" y2="350" stroke="#FF8C00" stroke-width="2" opacity="0.4"/>
  <path d="M500 480 Q400 550 250 620" stroke="#2D6A4F" stroke-width="8" fill="none" stroke-linecap="round"/>
  <path d="M600 500 Q600 600 600 740" stroke="#2D6A4F" stroke-width="7" fill="none" stroke-linecap="round"/>
  <path d="M700 480 Q800 550 950 620" stroke="#2D6A4F" stroke-width="8" fill="none" stroke-linecap="round"/>
  <path d="M520 490 Q430 520 300 560" stroke="#2D6A4F" stroke-width="5" fill="none" stroke-linecap="round" opacity="0.6"/>
  <path d="M680 490 Q770 520 900 560" stroke="#2D6A4F" stroke-width="5" fill="none" stroke-linecap="round" opacity="0.6"/>
  <circle cx="250" cy="620" r="10" fill="#FF8C00"/>
  <circle cx="950" cy="620" r="10" fill="#FF8C00"/>
  <circle cx="600" cy="740" r="10" fill="#FF8C00"/>
  <circle cx="300" cy="560" r="7" fill="#FF8C00" opacity="0.7"/>
  <circle cx="900" cy="560" r="7" fill="#FF8C00" opacity="0.7"/>
  <circle cx="540" cy="300" r="6" fill="#FF8C00"/>
  <circle cx="660" cy="310" r="6" fill="#FF8C00"/>
  <circle cx="600" cy="250" r="5" fill="#2D6A4F"/>
  <circle cx="580" cy="400" r="5" fill="#2D6A4F"/>
  <path d="M540 300 Q580 270 600 250" stroke="#2D6A4F" stroke-width="1.5" fill="none" opacity="0.5"/>
  <path d="M660 310 Q640 270 600 250" stroke="#2D6A4F" stroke-width="1.5" fill="none" opacity="0.5"/>
</svg>
