<svg xmlns="http://www.w3.org/2000/svg" viewBox="0 0 1200 800">
  <rect width="1200" height="800" fill="#FFF5E6"/>
  <path d="M100 400 Q300 300 500 350 Q700 400 900 300 Q1000 250 1100 350" stroke="#FF8C00" stroke-width="8" fill="none" stroke-linecap="round"/>
  <path d="M50 500 Q250 450 450 500 Q650 550 850 450 Q1050 350 1150 400" stroke="#FF8C00" stroke-width="6" fill="none" stroke-linecap="round" opacity="0.7"/>
  <path d="M200 600 Q400 550 600 600 Q800 650 1000 550" stroke="#2D6A4F" stroke-width="5" fill="none" stroke-linecap="round" opacity="0.6"/>
  <path d="M0 300 Q200 250 400 280 Q600 310 800 250 Q1000 190 1200 250" stroke="#2D6A4F" stroke-width="4" fill="none" stroke-linecap="round" opacity="0.5"/>
  <circle cx="500" cy="350" r="16" fill="#FF8C00"/>
  <circle cx="900" cy="300" r="14" fill="#FF8C00"/>
  <circle cx="300" cy="300" r="10" fill="#2D6A4F"/>
  <circle cx="700" cy="400" r="12" fill="#2D6A4F"/>
  <circle cx="450" cy="500" r="10" fill="#FF8C00" opacity="0.8"/>
  <circle cx="850" cy="450" r="8" fill="#FF8C00" opacity="0.7"/>
  <circle cx="600" cy="600" r="10" fill="#2D6A4F" opacity="0.7"/>
  <line x1="500" y1="350" x2="500" y2="280" stroke="#2D6A4F" stroke-width="3" stroke-linecap="round"/>
  <circle cx="500" cy="270" r="8" fill="#2D6A4F" opacity="0.5"/>
  <line x1="900" y1="300" x2="900" y2="230" stroke="#2D6A4F" stroke-width="3" stroke-linecap="round"/>
  <circle cx="900" cy="220" r="8" fill="#2D6A4F" opacity="0.5"/>
</svg>
