<svg xmlns="http://www.w3.org/2000/svg" viewBox="0 0 1200 800">
  <rect width="1200" height="800" fill="#FFF5E6"/>
  <!-- Row 1 -->
  <rect x="150" y="120" width="400" height="140" rx="8" fill="white" stroke="#FF8C00" stroke-width="2" opacity="0.8"/>
  <line x1="180" y1="160" x2="380" y2="160" stroke="#2D6A4F" stroke-width="3" opacity="0.4"/>
  <line x1="180" y1="185" x2="500" y2="185" stroke="#2D6A4F" stroke-width="2" opacity="0.25"/>
  <line x1="180" y1="205" x2="480" y2="205" stroke="#2D6A4F" stroke-width="2" opacity="0.25"/>
  <line x1="180" y1="225" x2="420" y2="225" stroke="#2D6A4F" stroke-width="2" opacity="0.25"/>
  <!-- Root from row 1 -->
  <path d="M550 190 Q620 200 700 240 Q780 280 820 190" stroke="#2D6A4F" stroke-width="4" fill="none" stroke-linecap="round" opacity="0.5"/>
  <!-- Row 2 -->
  <rect x="300" y="320" width="400" height="140" rx="8" fill="white" stroke="#2D6A4F" stroke-width="2" opacity="0.8"/>
  <line x1="330" y1="360" x2="530" y2="360" stroke="#FF8C00" stroke-width="3" opacity="0.4"/>
  <line x1="330" y1="385" x2="650" y2="385" stroke="#FF8C00" stroke-width="2" opacity="0.25"/>
  <line x1="330" y1="405" x2="630" y2="405" stroke="#FF8C00" stroke-width="2" opacity="0.25"/>
  <line x1="330" y1="425" x2="570" y2="425" stroke="#FF8C00" stroke-width="2" opacity="0.25"/>
  <!-- Root connecting rows -->
  <path d="M350 260 Q320 290 330 320" stroke="#2D6A4F" stroke-width="3" fill="none" stroke-linecap="round" opacity="0.4"/>
  <!-- Row 3 -->
  <rect x="450" y="520" width="400" height="140" rx="8" fill="white" stroke="#FF8C00" stroke-width="2" opacity="0.8"/>
  <line x1="480" y1="560" x2="680" y2="560" stroke="#2D6A4F" stroke-width="3" opacity="0.4"/>
  <line x1="480" y1="585" x2="800" y2="585" stroke="#2D6A4F" stroke-width="2" opacity="0.25"/>
  <line x1="480" y1="605" x2="780" y2="605" stroke="#2D6A4F" stroke-width="2" opacity="0.25"/>
  <line x1="480" y1="625" x2="720" y2="625" stroke="#2D6A4F" stroke-width="2" opacity="0.25"/>
  <!-- Root connecting rows -->
  <path d="M500 460 Q470 490 480 520" stroke="#FF8C00" stroke-width="3" fill="none" stroke-linecap="round" opacity="0.4"/>
  <!-- Decorative root network in background -->
  <path d="M100 700 Q300 650 500 680 Q700 710 900 660 Q1050 630 1150 680" stroke="#2D6A4F" stroke-width="3" fill="none" stroke-linecap="round" opacity="0.15"/>
  <path d="M50 750 Q250 720 450 740 Q650 760 850 730 Q1000 710 1200 740" stroke="#FF8C00" stroke-width="2" fill="none" stroke-linecap="round" opacity="0.1"/>
  <!-- Accent dots -->
  <circle cx="700" cy="240" r="6" fill="#FF8C00" opacity="0.6"/>
  <circle cx="820" cy="190" r="5" fill="#2D6A4F" opacity="0.5"/>
</svg>
