<svg xmlns="http://www.w3.org/2000/svg" viewBox="0 0 800 800">
  <rect width="800" height="800" fill="#F0F7F4"/>
  <!-- Gear outer -->
  <g transform="translate(400,420)">
    <path d="M-30,-150 L30,-150 L40,-120 L70,-110 L90,-140 L130,-110 L110,-80 L120,-50 L150,-40 L150,30 L120,40 L110,70 L130,100 L90,130 L70,100 L40,110 L30,140 L-30,140 L-40,110 L-70,100 L-90,130 L-130,100 L-110,70 L-120,40 L-150,30 L-150,-40 L-120,-50 L-110,-80 L-130,-110 L-90,-140 L-70,-110 L-40,-120Z" fill="none" stroke="#2D6A4F" stroke-width="6"/>
    <circle cx="0" cy="0" r="70" fill="none" stroke="#2D6A4F" stroke-width="4"/>
  </g>
  <!-- Plant from center -->
  <line x1="400" y1="420" x2="400" y2="300" stroke="#2D6A4F" stroke-width="4" stroke-linecap="round"/>
  <ellipse cx="385" cy="320" rx="15" ry="25" fill="#2D6A4F" opacity="0.6" transform="rotate(-30,385,320)"/>
  <ellipse cx="415" cy="340" rx="15" ry="25" fill="#FF8C00" opacity="0.6" transform="rotate(30,415,340)"/>
  <ellipse cx="390" cy="290" rx="12" ry="20" fill="#FF8C00" opacity="0.5" transform="rotate(-20,390,290)"/>
  <circle cx="400" cy="275" r="6" fill="#2D6A4F"/>
</svg>
