<svg viewBox="0 0 512 512" xmlns="http://www.w3.org/2000/svg">
  <g fill="#000000" stroke="#000000" stroke-linecap="round">
    <!-- Canopy -->
    <circle cx="256" cy="140" r="72" stroke="none"/>
    <circle cx="206" cy="156" r="55" stroke="none"/>
    <circle cx="306" cy="156" r="55" stroke="none"/>
    <circle cx="228" cy="110" r="42" stroke="none"/>
    <circle cx="284" cy="110" r="42" stroke="none"/>
    <!-- Trunk -->
    <rect x="242" y="200" width="28" height="90" rx="10" stroke="none"/>
    <!-- Roots -->
    <path d="M246 290 Q176 330 96 340 Q56 345 36 335" stroke-width="14" fill="none"/>
    <path d="M236 300 Q156 350 86 370" stroke-width="10" fill="none" opacity="0.7"/>
    <path d="M226 310 Q176 360 126 390" stroke-width="7" fill="none" opacity="0.5"/>
    <path d="M266 290 Q336 330 416 340 Q456 345 476 335" stroke-width="14" fill="none"/>
    <path d="M276 300 Q356 350 426 370" stroke-width="10" fill="none" opacity="0.7"/>
    <path d="M286 310 Q336 360 386 390" stroke-width="7" fill="none" opacity="0.5"/>
    <path d="M256 290 Q256 340 256 390" stroke-width="10" fill="none" opacity="0.6"/>
  </g>
</svg>
